# xmcd CD database file generated by Grip 3.0.7
# 
# Track frame offsets:
#       150
#       17007
#       32790
#       55352
#       70360
#       89937
#       131167
#       149092
#       175702
# 
# Disc length: 2514 seconds
# 
# Revision: 9
# Processed by: cddbd v1.5.1PL0 Copyright (c) Steve Scherf et al.
# Submitted via: Grip 3.0.7
# 
DISCID=8c09d009
DTITLE=Albert King - New Orleans Heat
DYEAR=1978
DGENRE=Blues
TTITLE0=Get Out Of My Life Woman
TTITLE1=Born Under A Bad Sign
TTITLE2=The Feeling
TTITLE3=We All Wanna Boogie
TTITLE4=The Very Thought Of You
TTITLE5=I Got The Blues
TTITLE6=I Get Evil
TTITLE7=Angel Of Mercy
TTITLE8=Flat Tire
EXTD=
EXTT0=
EXTT1=
EXTT2=
EXTT3=
EXTT4=
EXTT5=
EXTT6=
EXTT7=
EXTT8=
PLAYORDER=
